CATALOG 0000000000000
FILE "Virtual Casino (Japan) (Track 01).bin" BINARY
  TRACK 01 MODE1/2352
    INDEX 01 00:00:00
FILE "Virtual Casino (Japan) (Track 02).bin" BINARY
  TRACK 02 AUDIO
    INDEX 00 00:00:00
    INDEX 01 00:02:00
FILE "Virtual Casino (Japan) (Track 03).bin" BINARY
  TRACK 03 AUDIO
    INDEX 00 00:00:00
    INDEX 01 00:01:74
FILE "Virtual Casino (Japan) (Track 04).bin" BINARY
  TRACK 04 AUDIO
    INDEX 00 00:00:00
    INDEX 01 00:01:74
    INDEX 02 00:22:04
FILE "Virtual Casino (Japan) (Track 05).bin" BINARY
  TRACK 05 AUDIO
    INDEX 00 00:00:00
    INDEX 01 00:01:74
FILE "Virtual Casino (Japan) (Track 06).bin" BINARY
  TRACK 06 AUDIO
    INDEX 00 00:00:00
    INDEX 01 00:01:74
FILE "Virtual Casino (Japan) (Track 07).bin" BINARY
  TRACK 07 AUDIO
    INDEX 00 00:00:00
    INDEX 01 00:01:74
FILE "Virtual Casino (Japan) (Track 08).bin" BINARY
  TRACK 08 AUDIO
    INDEX 00 00:00:00
    INDEX 01 00:01:74
FILE "Virtual Casino (Japan) (Track 09).bin" BINARY
  TRACK 09 AUDIO
    INDEX 00 00:00:00
    INDEX 01 00:01:74
FILE "Virtual Casino (Japan) (Track 10).bin" BINARY
  TRACK 10 AUDIO
    INDEX 00 00:00:00
    INDEX 01 00:01:74
FILE "Virtual Casino (Japan) (Track 11).bin" BINARY
  TRACK 11 AUDIO
    INDEX 00 00:00:00
    INDEX 01 00:01:74
FILE "Virtual Casino (Japan) (Track 12).bin" BINARY
  TRACK 12 AUDIO
    INDEX 00 00:00:00
    INDEX 01 00:01:74
FILE "Virtual Casino (Japan) (Track 13).bin" BINARY
  TRACK 13 AUDIO
    INDEX 00 00:00:00
    INDEX 01 00:01:74
FILE "Virtual Casino (Japan) (Track 14).bin" BINARY
  TRACK 14 AUDIO
    INDEX 00 00:00:00
    INDEX 01 00:01:74
FILE "Virtual Casino (Japan) (Track 15).bin" BINARY
  TRACK 15 AUDIO
    INDEX 00 00:00:00
    INDEX 01 00:01:74
    INDEX 02 00:07:61
FILE "Virtual Casino (Japan) (Track 16).bin" BINARY
  TRACK 16 AUDIO
    INDEX 00 00:00:00
    INDEX 01 00:01:74
    INDEX 02 00:03:21
    INDEX 03 00:05:21
    INDEX 04 00:06:43
    INDEX 05 00:08:43
    INDEX 06 00:09:59
    INDEX 07 00:11:59
    INDEX 08 00:13:42
    INDEX 09 00:15:42
    INDEX 10 00:16:62
FILE "Virtual Casino (Japan) (Track 17).bin" BINARY
  TRACK 17 AUDIO
    INDEX 00 00:00:00
    INDEX 01 00:01:74
    INDEX 02 00:03:09
    INDEX 03 00:05:09
    INDEX 04 00:06:47
    INDEX 05 00:08:47
    INDEX 06 00:10:51
    INDEX 07 00:12:51
    INDEX 08 00:14:26
    INDEX 09 00:16:26
    INDEX 10 00:18:63
FILE "Virtual Casino (Japan) (Track 18).bin" BINARY
  TRACK 18 AUDIO
    INDEX 00 00:00:00
    INDEX 01 00:01:74
    INDEX 02 00:03:26
    INDEX 03 00:05:26
    INDEX 04 00:06:71
    INDEX 05 00:08:71
    INDEX 06 00:10:00
    INDEX 07 00:12:00
    INDEX 08 00:13:08
FILE "Virtual Casino (Japan) (Track 19).bin" BINARY
  TRACK 19 AUDIO
    INDEX 00 00:00:00
    INDEX 01 00:01:74
FILE "Virtual Casino (Japan) (Track 20).bin" BINARY
  TRACK 20 AUDIO
    INDEX 00 00:00:00
    INDEX 01 00:01:74
FILE "Virtual Casino (Japan) (Track 21).bin" BINARY
  TRACK 21 AUDIO
    INDEX 00 00:00:00
    INDEX 01 00:01:74
FILE "Virtual Casino (Japan) (Track 22).bin" BINARY
  TRACK 22 AUDIO
    INDEX 00 00:00:00
    INDEX 01 00:01:74
FILE "Virtual Casino (Japan) (Track 23).bin" BINARY
  TRACK 23 AUDIO
    INDEX 00 00:00:00
    INDEX 01 00:01:74
FILE "Virtual Casino (Japan) (Track 24).bin" BINARY
  TRACK 24 AUDIO
    INDEX 00 00:00:00
    INDEX 01 00:01:74
FILE "Virtual Casino (Japan) (Track 25).bin" BINARY
  TRACK 25 AUDIO
    INDEX 00 00:00:00
    INDEX 01 00:01:74
FILE "Virtual Casino (Japan) (Track 26).bin" BINARY
  TRACK 26 AUDIO
    INDEX 00 00:00:00
    INDEX 01 00:01:74
FILE "Virtual Casino (Japan) (Track 27).bin" BINARY
  TRACK 27 AUDIO
    INDEX 00 00:00:00
    INDEX 01 00:01:74
FILE "Virtual Casino (Japan) (Track 28).bin" BINARY
  TRACK 28 AUDIO
    INDEX 00 00:00:00
    INDEX 01 00:01:74
FILE "Virtual Casino (Japan) (Track 29).bin" BINARY
  TRACK 29 AUDIO
    INDEX 00 00:00:00
    INDEX 01 00:01:74
    INDEX 02 01:38:41
    INDEX 03 01:40:41
